# xmcd
#
# Track frame offsets:
#	150
#	13535
#	26022
#	40775
#	54992
#	71915
#	87780
#	103500
#	119940
#	130460
#
# Disc length: 1906 seconds
#
# Revision: 0
# Processed by: cddbd v1.4PL0 Copyright (c) Steve Scherf et al.
# Submitted via: EasyCDDAExtractor 4.6.9.1
#
DISCID=8807700a
DTITLE=Ellis James - Special moments
DYEAR=1900
DGENRE=country
TTITLE0=Restless
TTITLE1=Lay around and love on you
TTITLE2=I need you in my life
TTITLE3=Out of the blue
TTITLE4=Memories won't let us lay down
TTITLE5=Dream on me
TTITLE6=Can't get used to sleeping by myself
TTITLE7=Another Sunday father
TTITLE8=Old pipeliner
TTITLE9=Old time rock
EXTD=
EXTT0=
EXTT1=
EXTT2=
EXTT3=
EXTT4=
EXTT5=
EXTT6=
EXTT7=
EXTT8=
EXTT9=
PLAYORDER=
